<svg xmlns="http://www.w3.org/2000/svg" viewBox="0 0 180 180" fill="none">
  <defs>
    <linearGradient id="glow" x1="90" y1="0" x2="90" y2="180" gradientUnits="userSpaceOnUse">
      <stop stop-color="#6366F1" stop-opacity="0.5" />
      <stop offset="1" stop-color="#9333EA" stop-opacity="0.2" />
    </linearGradient>
  </defs>
  <rect width="180" height="180" rx="40" fill="#020617" />
  <rect x="6" y="6" width="168" height="168" rx="36" fill="url(#glow)" />
  <rect x="24" y="24" width="132" height="132" rx="28" fill="#0F172A" stroke="#1E293B" stroke-width="2" />
  <g transform="translate(54 42)" stroke="#818CF8" stroke-width="8" stroke-linecap="round" stroke-linejoin="round">
    <path d="M36 63c0 15-7.88 22.5-19.5 26.84a3 3 0 0 1-2.02 0C3.56 82.5 0 67.5 0 52.5V21a3 3 0 0 1 3-3c6 0 13.5-3.6 18.72-8.16a3.5 3.5 0 0 1 4.56 0C31.53 17.4 39 21 45 21a3 3 0 0 1 3 3v31.5Z" />
    <path d="M21 24v12" />
    <path d="M21 48h.03" />
  </g>
</svg>
